<mxfile host="app.diagrams.net" modified="2024-05-08T16:12:52.632Z" agent="Mozilla/5.0 (Windows NT 10.0; Win64; x64) AppleWebKit/537.36 (KHTML, like Gecko) Chrome/124.0.0.0 Safari/537.36" etag="57FMpUvsugEllbm0jk69" version="24.3.1" type="google">
  <diagram id="prtHgNgQTEPvFCAcTncT" name="Page-1">
    <mxGraphModel dx="1120" dy="468" grid="1" gridSize="10" guides="1" tooltips="1" connect="1" arrows="1" fold="1" page="1" pageScale="1" pageWidth="827" pageHeight="1169" background="#FFFFFF" math="0" shadow="0">
      <root>
        <mxCell id="0" />
        <mxCell id="1" parent="0" />
        <mxCell id="T_XjzfC1xLZzZwIXy5Pw-5" value="" style="rounded=1;whiteSpace=wrap;html=1;direction=south;" parent="1" vertex="1">
          <mxGeometry x="37.5" y="490" width="25" height="140" as="geometry" />
        </mxCell>
        <mxCell id="T_XjzfC1xLZzZwIXy5Pw-6" value="Input Layer" style="text;html=1;align=center;verticalAlign=middle;whiteSpace=wrap;rounded=0;" parent="1" vertex="1">
          <mxGeometry x="20" y="440" width="60" height="30" as="geometry" />
        </mxCell>
        <mxCell id="T_XjzfC1xLZzZwIXy5Pw-8" value="" style="endArrow=classic;html=1;rounded=0;" parent="1" edge="1">
          <mxGeometry width="50" height="50" relative="1" as="geometry">
            <mxPoint x="67.5" y="550" as="sourcePoint" />
            <mxPoint x="112.5" y="549.5" as="targetPoint" />
          </mxGeometry>
        </mxCell>
        <mxCell id="T_XjzfC1xLZzZwIXy5Pw-17" value="" style="endArrow=classic;html=1;rounded=0;" parent="1" edge="1">
          <mxGeometry width="50" height="50" relative="1" as="geometry">
            <mxPoint x="347.5" y="552.94" as="sourcePoint" />
            <mxPoint x="382.5" y="552.94" as="targetPoint" />
          </mxGeometry>
        </mxCell>
        <mxCell id="T_XjzfC1xLZzZwIXy5Pw-59" value="" style="edgeStyle=orthogonalEdgeStyle;rounded=0;orthogonalLoop=1;jettySize=auto;html=1;" parent="1" source="T_XjzfC1xLZzZwIXy5Pw-20" target="T_XjzfC1xLZzZwIXy5Pw-35" edge="1">
          <mxGeometry relative="1" as="geometry" />
        </mxCell>
        <mxCell id="T_XjzfC1xLZzZwIXy5Pw-20" value="" style="shape=orEllipse;perimeter=ellipsePerimeter;whiteSpace=wrap;html=1;backgroundOutline=1;direction=west;" parent="1" vertex="1">
          <mxGeometry x="382.5" y="533.83" width="40" height="39.22" as="geometry" />
        </mxCell>
        <mxCell id="T_XjzfC1xLZzZwIXy5Pw-22" value="" style="rounded=0;whiteSpace=wrap;html=1;direction=south;" parent="1" vertex="1">
          <mxGeometry x="122.5" y="468.44" width="90" height="170" as="geometry" />
        </mxCell>
        <mxCell id="T_XjzfC1xLZzZwIXy5Pw-23" value="" style="rounded=1;whiteSpace=wrap;html=1;direction=south;" parent="1" vertex="1">
          <mxGeometry x="177.5" y="490" width="25" height="140" as="geometry" />
        </mxCell>
        <mxCell id="T_XjzfC1xLZzZwIXy5Pw-24" value="" style="rounded=1;whiteSpace=wrap;html=1;direction=south;" parent="1" vertex="1">
          <mxGeometry x="135" y="490" width="25" height="140" as="geometry" />
        </mxCell>
        <mxCell id="T_XjzfC1xLZzZwIXy5Pw-25" value="Conv2D" style="text;html=1;align=center;verticalAlign=middle;whiteSpace=wrap;rounded=0;" parent="1" vertex="1">
          <mxGeometry x="112.5" y="468.44" width="60" height="30" as="geometry" />
        </mxCell>
        <mxCell id="T_XjzfC1xLZzZwIXy5Pw-26" value="Pooling" style="text;html=1;align=center;verticalAlign=middle;whiteSpace=wrap;rounded=0;" parent="1" vertex="1">
          <mxGeometry x="162.5" y="468.44" width="60" height="30" as="geometry" />
        </mxCell>
        <mxCell id="T_XjzfC1xLZzZwIXy5Pw-28" value="" style="rounded=0;whiteSpace=wrap;html=1;direction=south;" parent="1" vertex="1">
          <mxGeometry x="262.5" y="470" width="90" height="170" as="geometry" />
        </mxCell>
        <mxCell id="T_XjzfC1xLZzZwIXy5Pw-29" value="" style="rounded=0;whiteSpace=wrap;html=1;direction=south;" parent="1" vertex="1">
          <mxGeometry x="452.5" y="468.44" width="90" height="170" as="geometry" />
        </mxCell>
        <mxCell id="T_XjzfC1xLZzZwIXy5Pw-30" value="" style="rounded=1;whiteSpace=wrap;html=1;direction=south;" parent="1" vertex="1">
          <mxGeometry x="270" y="490" width="25" height="140" as="geometry" />
        </mxCell>
        <mxCell id="T_XjzfC1xLZzZwIXy5Pw-31" value="" style="rounded=1;whiteSpace=wrap;html=1;direction=south;" parent="1" vertex="1">
          <mxGeometry x="317.5" y="490" width="25" height="140" as="geometry" />
        </mxCell>
        <mxCell id="T_XjzfC1xLZzZwIXy5Pw-32" value="Conv2D" style="text;html=1;align=center;verticalAlign=middle;whiteSpace=wrap;rounded=0;" parent="1" vertex="1">
          <mxGeometry x="252.5" y="468.44" width="60" height="30" as="geometry" />
        </mxCell>
        <mxCell id="T_XjzfC1xLZzZwIXy5Pw-33" value="Pooling" style="text;html=1;align=center;verticalAlign=middle;whiteSpace=wrap;rounded=0;" parent="1" vertex="1">
          <mxGeometry x="302.5" y="468.44" width="60" height="30" as="geometry" />
        </mxCell>
        <mxCell id="T_XjzfC1xLZzZwIXy5Pw-34" value="" style="rounded=1;whiteSpace=wrap;html=1;direction=south;" parent="1" vertex="1">
          <mxGeometry x="462.5" y="490" width="25" height="140" as="geometry" />
        </mxCell>
        <mxCell id="T_XjzfC1xLZzZwIXy5Pw-35" value="" style="rounded=1;whiteSpace=wrap;html=1;direction=south;" parent="1" vertex="1">
          <mxGeometry x="502.5" y="490" width="25" height="140" as="geometry" />
        </mxCell>
        <mxCell id="T_XjzfC1xLZzZwIXy5Pw-37" value="Conv2D" style="text;html=1;align=center;verticalAlign=middle;whiteSpace=wrap;rounded=0;" parent="1" vertex="1">
          <mxGeometry x="442.5" y="470" width="60" height="30" as="geometry" />
        </mxCell>
        <mxCell id="T_XjzfC1xLZzZwIXy5Pw-38" value="Pooling" style="text;html=1;align=center;verticalAlign=middle;whiteSpace=wrap;rounded=0;" parent="1" vertex="1">
          <mxGeometry x="492.5" y="470" width="60" height="30" as="geometry" />
        </mxCell>
        <mxCell id="T_XjzfC1xLZzZwIXy5Pw-40" value="" style="shape=orEllipse;perimeter=ellipsePerimeter;whiteSpace=wrap;html=1;backgroundOutline=1;direction=west;" parent="1" vertex="1">
          <mxGeometry x="582.5" y="533.83" width="40" height="39.22" as="geometry" />
        </mxCell>
        <mxCell id="T_XjzfC1xLZzZwIXy5Pw-41" value="" style="rounded=1;whiteSpace=wrap;html=1;direction=south;" parent="1" vertex="1">
          <mxGeometry x="652.5" y="483.44" width="25" height="140" as="geometry" />
        </mxCell>
        <mxCell id="T_XjzfC1xLZzZwIXy5Pw-65" value="" style="edgeStyle=orthogonalEdgeStyle;rounded=0;orthogonalLoop=1;jettySize=auto;html=1;" parent="1" source="T_XjzfC1xLZzZwIXy5Pw-42" target="T_XjzfC1xLZzZwIXy5Pw-61" edge="1">
          <mxGeometry relative="1" as="geometry" />
        </mxCell>
        <mxCell id="T_XjzfC1xLZzZwIXy5Pw-42" value="" style="rounded=1;whiteSpace=wrap;html=1;direction=south;" parent="1" vertex="1">
          <mxGeometry x="712.5" y="485" width="25" height="140" as="geometry" />
        </mxCell>
        <mxCell id="T_XjzfC1xLZzZwIXy5Pw-43" value="" style="edgeStyle=segmentEdgeStyle;endArrow=classic;html=1;curved=0;rounded=0;endSize=8;startSize=8;" parent="1" edge="1">
          <mxGeometry width="50" height="50" relative="1" as="geometry">
            <mxPoint x="160" y="680" as="sourcePoint" />
            <mxPoint x="400" y="580" as="targetPoint" />
            <Array as="points">
              <mxPoint x="400" y="680" />
            </Array>
          </mxGeometry>
        </mxCell>
        <mxCell id="T_XjzfC1xLZzZwIXy5Pw-47" value="" style="endArrow=none;html=1;rounded=0;" parent="1" edge="1">
          <mxGeometry width="50" height="50" relative="1" as="geometry">
            <mxPoint x="162.5" y="680" as="sourcePoint" />
            <mxPoint x="162.5" y="640" as="targetPoint" />
          </mxGeometry>
        </mxCell>
        <mxCell id="T_XjzfC1xLZzZwIXy5Pw-48" value="" style="endArrow=classic;html=1;rounded=0;" parent="1" edge="1">
          <mxGeometry width="50" height="50" relative="1" as="geometry">
            <mxPoint x="217.5" y="553.44" as="sourcePoint" />
            <mxPoint x="262.5" y="552.94" as="targetPoint" />
          </mxGeometry>
        </mxCell>
        <mxCell id="T_XjzfC1xLZzZwIXy5Pw-49" value="" style="edgeStyle=segmentEdgeStyle;endArrow=classic;html=1;curved=0;rounded=0;endSize=8;startSize=8;exitX=0.125;exitY=-0.048;exitDx=0;exitDy=0;exitPerimeter=0;" parent="1" source="T_XjzfC1xLZzZwIXy5Pw-33" edge="1">
          <mxGeometry width="50" height="50" relative="1" as="geometry">
            <mxPoint x="310" y="460" as="sourcePoint" />
            <mxPoint x="603" y="533.83" as="targetPoint" />
            <Array as="points">
              <mxPoint x="310" y="430" />
              <mxPoint x="603" y="430" />
            </Array>
          </mxGeometry>
        </mxCell>
        <mxCell id="T_XjzfC1xLZzZwIXy5Pw-54" value="Dense Layer" style="text;html=1;align=center;verticalAlign=middle;whiteSpace=wrap;rounded=0;" parent="1" vertex="1">
          <mxGeometry x="690" y="440" width="60" height="30" as="geometry" />
        </mxCell>
        <mxCell id="T_XjzfC1xLZzZwIXy5Pw-55" value="Output Layer" style="text;html=1;align=center;verticalAlign=middle;whiteSpace=wrap;rounded=0;" parent="1" vertex="1">
          <mxGeometry x="742.5" y="440" width="60" height="30" as="geometry" />
        </mxCell>
        <mxCell id="T_XjzfC1xLZzZwIXy5Pw-56" value="" style="endArrow=classic;html=1;rounded=0;" parent="1" edge="1">
          <mxGeometry width="50" height="50" relative="1" as="geometry">
            <mxPoint x="677.5" y="552.94" as="sourcePoint" />
            <mxPoint x="712.5" y="552.94" as="targetPoint" />
          </mxGeometry>
        </mxCell>
        <mxCell id="T_XjzfC1xLZzZwIXy5Pw-57" value="" style="endArrow=classic;html=1;rounded=0;" parent="1" edge="1">
          <mxGeometry width="50" height="50" relative="1" as="geometry">
            <mxPoint x="617.5" y="552.94" as="sourcePoint" />
            <mxPoint x="652.5" y="552.94" as="targetPoint" />
          </mxGeometry>
        </mxCell>
        <mxCell id="T_XjzfC1xLZzZwIXy5Pw-58" value="" style="endArrow=classic;html=1;rounded=0;exitX=0.5;exitY=0;exitDx=0;exitDy=0;" parent="1" source="T_XjzfC1xLZzZwIXy5Pw-29" edge="1">
          <mxGeometry width="50" height="50" relative="1" as="geometry">
            <mxPoint x="547.5" y="552.94" as="sourcePoint" />
            <mxPoint x="582.5" y="552.94" as="targetPoint" />
          </mxGeometry>
        </mxCell>
        <mxCell id="T_XjzfC1xLZzZwIXy5Pw-60" value="" style="endArrow=classic;html=1;rounded=0;" parent="1" edge="1">
          <mxGeometry width="50" height="50" relative="1" as="geometry">
            <mxPoint x="417.5" y="552.94" as="sourcePoint" />
            <mxPoint x="452.5" y="552.94" as="targetPoint" />
          </mxGeometry>
        </mxCell>
        <mxCell id="T_XjzfC1xLZzZwIXy5Pw-61" value="" style="rounded=1;whiteSpace=wrap;html=1;direction=south;" parent="1" vertex="1">
          <mxGeometry x="760" y="483.44" width="25" height="140" as="geometry" />
        </mxCell>
        <mxCell id="T_XjzfC1xLZzZwIXy5Pw-62" value="Flatten Layer" style="text;html=1;align=center;verticalAlign=middle;whiteSpace=wrap;rounded=0;" parent="1" vertex="1">
          <mxGeometry x="640" y="440" width="50" height="30" as="geometry" />
        </mxCell>
        <mxCell id="T_XjzfC1xLZzZwIXy5Pw-64" value="" style="endArrow=classic;html=1;rounded=0;" parent="1" edge="1">
          <mxGeometry width="50" height="50" relative="1" as="geometry">
            <mxPoint x="740" y="555" as="sourcePoint" />
            <mxPoint x="760" y="554.5" as="targetPoint" />
          </mxGeometry>
        </mxCell>
      </root>
    </mxGraphModel>
  </diagram>
</mxfile>
